<svg xmlns="http://www.w3.org/2000/svg" version="1.1" xmlns:xlink="http://www.w3.org/1999/xlink" xmlns:svgjs="http://svgjs.dev/svgjs" width="287.6953125" height="200"><svg t="1731475920679" class="icon" viewBox="0 0 1473 1024" version="1.1" xmlns="http://www.w3.org/2000/svg" p-id="1400" xmlns:xlink="http://www.w3.org/1999/xlink" width="287.6953125" height="200"><path d="M967.62207588 953.70971855H131.73196484V142.79377607A72.56427363 72.56427363 0 0 1 204.29623847 70.22950244h690.74332999A72.56427363 72.56427363 0 0 1 967.62207588 142.79377607z" fill="#C3BBD2" p-id="1401"></path><path d="M967.62207588 961.93922099H131.73196484a8.22950244 8.22950244 0 0 1-8.22950244-8.22950243V142.79377607A80.88494502 80.88494502 0 0 1 204.29623847 62h690.74332999a80.88494502 80.88494502 0 0 1 80.79377607 80.79377607v810.91594249a8.22950244 8.22950244 0 0 1-8.21126865 8.22950243z m-827.66060947-16.46508251h819.4067956V142.79377607a64.42594013 64.42594013 0 0 0-64.32869355-64.32869355H204.29623847a64.42594013 64.42594013 0 0 0-64.33477206 64.32869355z" fill="#3B0E1E" p-id="1402"></path><path d="M271.04394395 70.22950244H201.25120097a69.51923701 69.51923701 0 0 0-69.51923613 69.51923613v223.28450771a69.65295117 69.65295117 0 0 0 69.65902881 69.65295118 69.65295117 69.65295117 0 0 0 69.65295029-69.65295118z" fill="#FB8B75" p-id="1403"></path><path d="M201.39099365 440.91569902a77.96754404 77.96754404 0 0 1-77.88853125-77.88245274V139.74266094A77.82775136 77.82775136 0 0 1 201.24512334 62h69.7988206a8.22950244 8.22950244 0 0 1 8.22950244 8.22950244v292.80374385a77.96754404 77.96754404 0 0 1-77.88245273 77.88245274z m-0.14587031-362.4506165a61.35051357 61.35051357 0 0 0-61.28365693 61.27757842v223.29058535a61.42952636 61.42952636 0 0 0 122.85297597 0V78.46508252z" fill="#3B0E1E" p-id="1404"></path><path d="M898.08460508 70.22950244h-69.79274297v292.80374384a69.65295117 69.65295117 0 0 0 69.65295117 69.65295119A69.65295117 69.65295117 0 0 0 967.62207588 363.03324629V139.74873857a69.51923701 69.51923701 0 0 0-69.5374708-69.51923613z" fill="#FFFFFF" p-id="1405"></path><path d="M897.94481328 440.91569902a77.96754404 77.96754404 0 0 1-77.88245273-77.88245274V70.22950244A8.22950244 8.22950244 0 0 1 828.29186211 62h69.79274297a77.83382988 77.83382988 0 0 1 77.74873945 77.74266094v223.29058535a77.97362168 77.97362168 0 0 1-77.88853125 77.88245274zM836.52136455 78.46508252v284.56816376a61.42344873 61.42344873 0 0 0 122.84689746 1e-8V139.74266094a61.35051357 61.35051357 0 0 0-61.28365693-61.27757842z" fill="#3B0E1E" p-id="1406"></path><path d="M828.29186211 70.22950244h-139.31197911v292.80374384a69.65295117 69.65295117 0 0 0 69.6529503 69.65295119 69.65295117 69.65295117 0 0 0 69.65902881-69.65295118z" fill="#FB8B75" p-id="1407"></path><path d="M758.6328333 440.91569902A77.96754404 77.96754404 0 0 1 680.74430292 363.03324629V70.22950244A8.22950244 8.22950244 0 0 1 688.97988301 62h139.3119791a8.22950244 8.22950244 0 0 1 8.22950244 8.22950244v292.80374385a77.97362168 77.97362168 0 0 1-77.88853125 77.88245274zM697.20938545 78.46508252v284.56816376a61.42952636 61.42952636 0 0 0 122.8529751 1e-8V78.46508252z" fill="#3B0E1E" p-id="1408"></path><path d="M688.97988301 70.22950244H549.66790303v292.80374384a69.65295117 69.65295117 0 0 0 69.65295117 69.65295119 69.65295117 69.65295117 0 0 0 69.6590288-69.65295118z" fill="#FFFFFF" p-id="1409"></path><path d="M619.3208542 440.91569902A77.96754404 77.96754404 0 0 1 541.43840146 363.03324629V70.22950244A8.22950244 8.22950244 0 0 1 549.66790303 62h139.31197997a8.22950244 8.22950244 0 0 1 8.22950245 8.22950244v292.80374385a77.96754404 77.96754404 0 0 1-77.88853125 77.88245274zM557.89740547 78.46508252v284.56816376a61.42952636 61.42952636 0 0 0 122.8529751 1e-8V78.46508252z" fill="#3B0E1E" p-id="1410"></path><path d="M549.66790303 70.22950244H410.35592393v292.80374384a69.65295117 69.65295117 0 0 0 69.65295029 69.65295119 69.65295117 69.65295117 0 0 0 69.6590288-69.65295118z" fill="#FB8B75" p-id="1411"></path><path d="M480.00887422 440.91569902a77.96754404 77.96754404 0 0 1-77.88245274-77.88245274V70.22950244A8.22950244 8.22950244 0 0 1 410.35592393 62h139.31197909a8.22950244 8.22950244 0 0 1 8.22950245 8.22950244v292.80374385a77.96754404 77.96754404 0 0 1-77.88853125 77.88245274zM418.58542636 78.46508252v284.56816376a61.42952636 61.42952636 0 0 0 122.8529751 1e-8V78.46508252z" fill="#3B0E1E" p-id="1412"></path><path d="M410.35592393 70.22950244H271.04394395v292.80374384a69.65295117 69.65295117 0 0 0 69.65902881 69.65295119 69.65295117 69.65295117 0 0 0 69.65295117-69.65295118z" fill="#FFFFFF" p-id="1413"></path><path d="M340.70297276 440.91569902a77.96754404 77.96754404 0 0 1-77.88853038-77.88245274V70.22950244A8.22950244 8.22950244 0 0 1 271.04394395 62h139.31197998a8.22950244 8.22950244 0 0 1 8.22950243 8.22950244v292.80374385a77.96754404 77.96754404 0 0 1-77.8824536 77.88245274zM279.27344638 78.46508252v284.56816376a61.42952636 61.42952636 0 0 0 122.8529751 1e-8V78.46508252z" fill="#3B0E1E" p-id="1414"></path><path d="M196.13359355 566.74077646H614.06953261v304.9109587H196.13359355z" fill="#86C8DE" p-id="1415"></path><path d="M614.06953261 879.8812376H196.13359355a8.22950244 8.22950244 0 0 1-8.22950243-8.22950244V566.74077646a8.22950244 8.22950244 0 0 1 8.22950243-8.22950156H614.06953261a8.22950244 8.22950244 0 0 1 8.22950157 8.22950156v304.9109587a8.22950244 8.22950244 0 0 1-8.22950156 8.22950244z m-409.70643662-16.45900489h401.47085567V574.97635654H204.36309599z" fill="#3B0E1E" p-id="1416"></path><path d="M674.95812383 566.74077646h222.98668945v386.96286446h-222.98668945z" fill="#86C8DE" p-id="1417"></path><path d="M897.94481328 961.93922099h-222.98668945a8.22950244 8.22950244 0 0 1-8.22950245-8.22950243V566.74077646a8.22950244 8.22950244 0 0 1 8.22950245-8.22950156h222.98668945a8.23558008 8.23558008 0 0 1 8.23558008 8.22950156v386.96894209a8.23558008 8.23558008 0 0 1-8.23558008 8.22950244z m-214.76934317-16.46508251h206.52768546V574.97635654H683.17547012z" fill="#3B0E1E" p-id="1418"></path><path d="M722.68194307 786.59733799a26.37209003 26.37209003 0 1 1 26.37209003-26.37209004 26.40855762 26.40855762 0 0 1-26.37209003 26.37209004z m0-41.77353692a15.40144687 15.40144687 0 1 0 15.40144687 15.40144688 15.41968067 15.41968067 0 0 0-15.40144687-15.40144688zM457.68467832 877.14009599a5.47012705 5.47012705 0 0 1-5.47012705-5.47012705v-304.92919248a5.47012705 5.47012705 0 1 1 10.97064404 0v304.9109587a5.47012705 5.47012705 0 0 1-5.50051699 5.48836083z" fill="#3B0E1E" p-id="1419"></path><path d="M1184.45183369 237.57892138m-167.34941982 0a167.34941982 167.34941982 0 1 0 334.69883876 0 167.34941982 167.34941982 0 1 0-334.69883877 0Z" fill="#FCD36A" p-id="1420"></path><path d="M1184.45183369 410.41670205a172.83778066 172.83778066 0 1 1 172.83777979-172.83778067 173.03227383 173.03227383 0 0 1-172.83777979 172.83778067z m0-334.69883877a161.86713662 161.86713662 0 1 0 161.86713662 161.8610581 162.04947451 162.04947451 0 0 0-161.86713662-161.8610581z" fill="#3B0E1E" p-id="1421"></path><path d="M1342.56281592 292.41390605c-26.13505166 34.41317695-65.25861503 56.17212627-116.27058868 47.66911875-29.28949102-4.1816083-66.94219863-29.28949102-50.20361015-66.94219951 33.46502168 33.47109932 87.85631777 16.73858847 117.13973116-25.10180508 16.73858847-29.28341338 20.92019677-58.5729044 12.55090253-96.22561201A163.83030469 163.83030469 0 0 0 1285.94700107 104.54543281a166.83279609 166.83279609 0 0 0-51.89327138-26.84009004 146.59940479 146.59940479 0 0 1 50.81140195 78.28967374c4.1816083 25.10180508 4.1816083 46.01592422-12.55090254 71.11165078-12.55090254 12.55090254-25.10180508 33.46502168-50.20968779 20.91411914 25.10788271-37.65270762 20.92019677-92.03792607-29.28341338-121.32741709a140.88008232 140.88008232 0 0 0-141.427096 9.42077373 166.93612119 166.93612119 0 0 0-25.05318135 46.61763838c26.13505166-34.41317695 65.26469356-56.17212627 116.27666719-47.66911788 29.28341338 4.1816083 66.93612099 29.28341338 50.20361016 66.936121-33.47109932-33.46502168-87.85631777-16.73251084-117.14580967 25.10788272-16.73251084 29.28341338-20.91411914 58.56682675-12.55090253 96.22561289a164.00656406 164.00656406 0 0 0 19.83832734 47.26189687 166.83279609 166.83279609 0 0 0 51.89327226 26.84009004 146.56293721 146.56293721 0 0 1-50.81140283-78.28967373c-4.1816083-25.10180508-4.1816083-46.02200185 12.55090253-71.11165078 12.55090254-12.55090254 25.10180508-33.47109932 50.20361016-20.91411914-25.10180508 37.68309756-20.92019677 92.03792607 29.2894919 121.32741708a140.88008232 140.88008232 0 0 0 141.42709512-9.42077372 166.75986182 166.75986182 0 0 0 25.04710371-46.61156074z" fill="#FB8B75" p-id="1422"></path><path d="M1134.85601533 402.97125166a5.53698457 5.53698457 0 0 1-1.62280458-0.24919453 171.81061172 171.81061172 0 0 1-53.60116729-27.71531104 5.42150332 5.42150332 0 0 1-1.32498633-1.45870049 169.78666465 169.78666465 0 0 1-20.50082051-48.84215625c-8.56986592-38.54616152-4.51589414-69.4341457 13.11007148-100.2856623 18.31276933-26.2019083 45.29265205-43.0073543 72.43663711-45.38382012a65.07627802 65.07627802 0 0 1 47.00054708 13.49298018 32.16434677 32.16434677 0 0 0-2.99641377-24.18403974c-8.78867051-15.8937583-29.78180244-25.52725987-45.51753516-27.80647911-56.15997099-9.35999472-91.40582285 19.61344424-111.12866894 45.5843918a5.47012705 5.47012705 0 0 1-9.54841114-5.11760743 172.04157334 172.04157334 0 0 1 25.86762334-48.15535166 5.28171153 5.28171153 0 0 1 1.37360918-1.27636347 146.84859932 146.84859932 0 0 1 146.87291074-9.72466963 90.74940732 90.74940732 0 0 1 45.13462647 58.15960576 91.16878359 91.16878359 0 0 1-10.22305957 65.40448535c12.97635732 3.92025762 21.2119374-3.64675166 32.37099609-15.89983593 1.85376533-2.03610322 3.64675166-4.03573799 5.47012705-5.87734717 15.03677109-22.78611826 15.57770625-41.75530312 11.41433174-66.7355502a140.20543388 140.20543388 0 0 0-48.82392246-74.90427275 5.47012705 5.47012705 0 0 1 5.05682842-9.52409883 171.72552128 171.72552128 0 0 1 53.59508877 27.71531015 5.47012705 5.47012705 0 0 1 1.33106396 1.45870049 169.9629249 169.9629249 0 0 1 20.50082051 48.83607862c8.56986592 38.54616152 4.51589414 69.4341457-13.1100706 100.2856623-18.31276933 26.20798682-45.29265205 43.01343193-72.43663799 45.38989864a65.19175839 65.19175839 0 0 1-47.00054708-13.49298018 32.15826914 32.15826914 0 0 0 2.99033614 24.18403974c8.79474902 15.8937583 29.78180244 25.52725987 45.52361279 27.80647911 56.14173721 9.37215088 91.40582285-19.61344424 111.12866982-45.5843918a5.47012705 5.47012705 0 0 1 9.54841026 5.11760742 172.10235234 172.10235234 0 0 1-25.86762246 48.15535167 5.59776357 5.59776357 0 0 1-1.37361006 1.27636259 146.81820937 146.81820937 0 0 1-146.87291074 9.72467051 90.74940732 90.74940732 0 0 1-45.13462559-58.15960576 91.16878359 91.16878359 0 0 1 10.22913721-65.4348753c-13.00066875-3.92633526-21.2119374 3.64675166-32.36491846 15.89983594-1.85984297 2.04218086-3.64675166 4.04181651-5.47012704 5.88342569-15.03677109 22.78611826-15.57162862 41.75530312-11.40825323 66.73554931a140.20543388 140.20543388 0 0 0 48.8300001 74.90427275 5.47012705 5.47012705 0 0 1-3.43402383 9.77329336z m-47.76636533-36.08460528a161.37482519 161.37482519 0 0 0 23.38783242 14.71464229 151.40703779 151.40703779 0 0 1-31.73889287-61.0101501c-4.63137451-27.642375-3.97495898-49.67483115 13.2924085-75.56068828a5.37288047 5.37288047 0 0 1 0.68680458-0.83875253c1.82337539-1.82337539 3.64675166-3.84124482 5.51875079-5.90165948 10.94025411-12.05251348 25.97702519-28.56621885 51.01805127-16.04570625a5.47012705 5.47012705 0 0 1 2.10903838 7.94991797 80.74515322 80.74515322 0 0 0-12.15583857 62.56001953 79.82738701 79.82738701 0 0 0 39.65842089 50.98158369 135.75639727 135.75639727 0 0 0 134.88117715-8.75828056 163.06448643 163.06448643 0 0 0 10.03464404-14.96383682 119.78970381 119.78970381 0 0 1-98.3771956 25.52725986c-18.84154834-2.69251787-42.77639355-14.05822676-53.44314082-33.33738515a44.8368082 44.8368082 0 0 1-0.87522012-41.24475792 5.47012705 5.47012705 0 0 1 8.89807324-1.65319453 54.56755635 54.56755635 0 0 0 44.63015801 15.96061583c23.59448086-2.07256992 48.17358545-17.52264052 64.14027891-40.32699258 16.11864141-28.25624531 19.69853555-55.86823037 11.68783769-91.89205576a158.74916396 158.74916396 0 0 0-18.6105876-44.69701553 161.94007177 161.94007177 0 0 0-23.40606621-14.74503134 151.44350537 151.44350537 0 0 1 31.74497051 61.01622773c4.63137451 27.642375 3.96888135 49.67483115-13.2924085 75.56068828a5.66462021 5.66462021 0 0 1-0.68680458 0.83875254c-1.82337539 1.82337539-3.64675166 3.84124482-5.52482842 5.89558096-10.94025411 12.06466875-25.96486992 28.59660878-51.01197364 16.05178388a5.47012705 5.47012705 0 0 1-2.11511513-7.94991797 80.73907471 80.73907471 0 0 0 12.15583769-62.55394101 79.86385459 79.86385459 0 0 0-39.66449941-50.98766221 135.76855253 135.76855253 0 0 0-134.88117627 8.75828145 162.28043526 162.28043526 0 0 0-10.02856641 14.96991445 119.73500244 119.73500244 0 0 1 98.3771956-25.52725987c18.84154834 2.69251787 42.77639355 14.05822676 53.44314083 33.33738516a44.8368082 44.8368082 0 0 1 0.86914248 41.24475791 5.47012705 5.47012705 0 0 1-8.89199472 1.65319453 54.62225771 54.62225771 0 0 0-44.63623653-15.96061582c-23.59448086 2.07256992-48.16750781 17.51656201-64.13420127 40.32699258-16.11864141 28.25624531-19.69853555 55.86215273-11.68783769 91.89205577a158.84033291 158.84033291 0 0 0 18.62882138 44.68486024z" fill="#3B0E1E" p-id="1423"></path><path d="M1200.2240331 404.92834122v68.50422421h-31.53832119V404.92834122c5.20269873 0.37075342 10.46009883 0.6077918 15.76612178 0.60779179s10.56950068-0.23703925 15.77219941-0.60779179z" fill="#FB8B75" p-id="1424"></path><path d="M1200.2240331 478.94523769h-31.54439971a5.47012705 5.47012705 0 0 1-5.47012704-5.47012704V404.93441885a5.47012705 5.47012705 0 0 1 1.74436347-4.01750421 5.59776357 5.59776357 0 0 1 4.12690693-1.45870048 187.12696816 187.12696816 0 0 0 30.77250294 0 5.65854258 5.65854258 0 0 1 4.12690693 1.45870048 5.47012705 5.47012705 0 0 1 1.7443626 4.01750421v68.49206894a5.47012705 5.47012705 0 0 1-5.50051612 5.5187499z m-26.05603886-10.97672167h20.56767803v-57.20537285a181.39549043 181.39549043 0 0 1-20.56767803 0z" fill="#3B0E1E" p-id="1425"></path><path d="M1168.68571191 511.96657168h31.54439883v160.81565625h-31.54439883z" fill="#FB8B75" p-id="1426"></path><path d="M1200.2240331 678.26451113h-31.54439971a5.47012705 5.47012705 0 0 1-5.47012704-5.47012705V511.96657168a5.47012705 5.47012705 0 0 1 5.47012704-5.47012705h31.54439971a5.47012705 5.47012705 0 0 1 5.47012706 5.47012705v160.80957861a5.47012705 5.47012705 0 0 1-5.47012706 5.48836085z m-26.05603886-10.97672168h20.56767803V517.44885401h-20.56767803z" fill="#3B0E1E" p-id="1427"></path><path d="M1168.68571191 711.31015654h31.53832119v152.45243965a15.77219941 15.77219941 0 1 1-31.53832119 0z" fill="#FB8B75" p-id="1428"></path><path d="M1184.45183369 885.02315645a21.27271641 21.27271641 0 0 1-21.2727164-21.27271553v-152.44028438a5.47012705 5.47012705 0 0 1 5.47012705-5.47012704h31.54439883a5.47012705 5.47012705 0 0 1 5.47012704 5.47012704v152.45243965a21.27271641 21.27271641 0 0 1-21.21193652 21.26056025z m-10.28383945-168.22463907v146.96407881a10.28383857 10.28383857 0 1 0 20.56767803 0v-146.9640788z" fill="#3B0E1E" p-id="1429"></path><path d="M1222.98583906 492.72387998a19.20622412 19.20622412 0 0 1-19.23661318 19.24269169H967.62207588v-38.53400624h236.12715a19.25484697 19.25484697 0 0 1 19.23661318 19.29131455z" fill="#FCD36A" p-id="1430"></path><path d="M1203.74922588 517.44885401H967.62207588a5.47012705 5.47012705 0 0 1-5.47012705-5.47012706v-38.55223916a5.47012705 5.47012705 0 0 1 5.47012705-5.47012704h236.12715a24.75536396 24.75536396 0 1 1 0 49.51072704zM973.09220292 506.47821084h230.65702296a13.63277198 13.63277198 0 0 0 9.7246705-4.02358271 13.80295372 13.80295372 0 0 0-9.7246705-23.5397795H973.09220292z" fill="#3B0E1E" p-id="1431"></path><path d="M1222.98583906 692.01884112a19.44934013 19.44934013 0 0 1-5.622075 13.66924042 19.25484697 19.25484697 0 0 1-13.61453818 5.622075H967.62207588v-38.53400625h236.12715a19.24876934 19.24876934 0 0 1 19.23661318 19.24269083z" fill="#FCD36A" p-id="1432"></path><path d="M1203.74922588 716.79851738H967.62207588a5.47012705 5.47012705 0 0 1-5.47012705-5.47012705v-38.53400625a5.47012705 5.47012705 0 0 1 5.47012705-5.47012705h236.12715a24.75536396 24.75536396 0 1 1 0 49.51072705z m-230.65702295-10.97672168h230.65702295a13.62669433 13.62669433 0 0 0 9.7246705-4.01750507 13.80295372 13.80295372 0 0 0-9.7246705-23.5397795H973.09220292z" fill="#3B0E1E" p-id="1433"></path><path d="M1330.97830244 961.90883106H70.24165859a8.23558008 8.23558008 0 0 1 0-16.46508252h1260.73664385a8.23558008 8.23558008 0 0 1 0 16.46508251z" fill="#3B0E1E" p-id="1434"></path></svg><style>@media (prefers-color-scheme: light) { :root { filter: none; } }
@media (prefers-color-scheme: dark) { :root { filter: none; } }
</style></svg>